<svg id="Layer_1" data-name="Layer 1" xmlns="http://www.w3.org/2000/svg" viewBox="0 0 573.37 573.55"><defs><style>.cls-1{fill:#ffda73;}.cls-2{fill:#262d39;}.cls-3{fill:none;stroke:#262d39;stroke-linecap:round;stroke-linejoin:round;stroke-width:23.84px;}.cls-4{fill:#f05469;}.cls-5{fill:#6788c5;}</style></defs><title>go-rando-large-sq</title><circle class="cls-1" cx="286.69" cy="286.69" r="286.69"/><path class="cls-2" d="M116.64,376.6H288V534.11s-73.73,6.5-123.84-46.87S118,382.46,116.64,376.6Z" transform="translate(-1.31 -1.76)"/><ellipse class="cls-2" cx="154.73" cy="216.58" rx="60.07" ry="38.66" transform="matrix(0.15, -0.99, 0.99, 0.15, -83.66, 335.81)"/><path class="cls-3" d="M109.56,148s20.85-33.61,59.41-24.17" transform="translate(-1.31 -1.76)"/><polyline class="cls-3" points="450.22 158.38 378.79 194.92 450.22 232"/><circle class="cls-2" cx="410.32" cy="305.99" r="37.64"/><path class="cls-3" d="M331.75,347.31s104.79,1.95,161.41-39.7" transform="translate(-1.31 -1.76)"/><path class="cls-3" d="M270.19,413.93s54.56-7.88,84.36,27.07" transform="translate(-1.31 -1.76)"/><ellipse class="cls-2" cx="412.12" cy="352.41" rx="23.42" ry="30.36"/><path class="cls-4" d="M288,425.22V534.11s-73.73,6.5-123.84-46.87a189.25,189.25,0,0,1-24.26-31.76s26-16.85,71-24S288,425.22,288,425.22Z" transform="translate(-1.31 -1.76)"/><path class="cls-5" d="M499.58,527.26a48,48,0,1,1-96.09,0c0-26.53,48.05-111.25,48.05-111.25S499.58,500.73,499.58,527.26Z" transform="translate(-1.31 -1.76)"/></svg>